# xmcd CD database file generated by OrangeCD 4.3
#
# Track frame offsets:
#	150
#	16850
#	38785
#	55537
#	71250
#	83885
#	112302
#	126362
#	136442
#	150975
#	165642
#	178557
#
# Disc length: 2555 seconds
#
# Revision: 0
# Processed by: cddbd v1.4PL0 Copyright (c) Steve Scherf et al.
# Submitted via: OrangeCD 4.3
#
DISCID=9509f90c
DTITLE=Shaver - highway of life
DYEAR=1996
DGENRE=
TTITLE0=Yesterday Tomorrow Was Today
TTITLE1=West Texas Waltz
TTITLE2=Highway Of Life
TTITLE3=Tomorrow's Goodbye
TTITLE4=Blue Blue Blues
TTITLE5=Comin On Strong
TTITLE6=You're As Young As The Woman You Feel
TTITLE7=Goodbye Yesterday
TTITLE8=Moonshine And Indian Blood
TTITLE9=Look For Me When You See Me Comin'
TTITLE10=The First And Last Time
TTITLE11=Extra Track
EXTD=
EXTT0=
EXTT1=
EXTT2=
EXTT3=
EXTT4=
EXTT5=
EXTT6=
EXTT7=
EXTT8=
EXTT9=
EXTT10=
EXTT11=
PLAYORDER=
